<mxfile host="app.diagrams.net" agent="Mozilla/5.0 (Windows NT 6.1; Win64; x64) AppleWebKit/537.36 (KHTML, like Gecko) Chrome/103.0.0.0 Safari/537.36" version="25.0.3">
  <diagram id="yGc1QVP97dw6FuUk2tgP" name="Página-1">
    <mxGraphModel dx="2393" dy="616" grid="1" gridSize="10" guides="1" tooltips="1" connect="1" arrows="1" fold="1" page="1" pageScale="1" pageWidth="827" pageHeight="1169" math="0" shadow="0">
      <root>
        <mxCell id="0" />
        <mxCell id="1" parent="0" />
        <mxCell id="_4646R3vuw2SqdPAQTDo-1" value="" style="ellipse;whiteSpace=wrap;html=1;aspect=fixed;fillColor=#d5e8d4;strokeColor=#82b366;" vertex="1" parent="1">
          <mxGeometry x="134" y="60" width="50" height="50" as="geometry" />
        </mxCell>
        <mxCell id="_4646R3vuw2SqdPAQTDo-8" style="edgeStyle=orthogonalEdgeStyle;rounded=0;orthogonalLoop=1;jettySize=auto;html=1;exitX=0.5;exitY=1;exitDx=0;exitDy=0;entryX=0.5;entryY=0;entryDx=0;entryDy=0;" edge="1" parent="1" source="_4646R3vuw2SqdPAQTDo-2" target="_4646R3vuw2SqdPAQTDo-7">
          <mxGeometry relative="1" as="geometry" />
        </mxCell>
        <mxCell id="_4646R3vuw2SqdPAQTDo-2" value="Dia &amp;lt; 1 || Dia &amp;gt; 30 || Mes &amp;lt; 1 || Mes &amp;gt; 12" style="rhombus;whiteSpace=wrap;html=1;fillColor=#ffe6cc;strokeColor=#d79b00;" vertex="1" parent="1">
          <mxGeometry x="39" y="411" width="240" height="100" as="geometry" />
        </mxCell>
        <mxCell id="_4646R3vuw2SqdPAQTDo-185" style="edgeStyle=orthogonalEdgeStyle;rounded=0;orthogonalLoop=1;jettySize=auto;html=1;exitX=0.5;exitY=1;exitDx=0;exitDy=0;exitPerimeter=0;entryX=0.5;entryY=0;entryDx=0;entryDy=0;" edge="1" parent="1" source="_4646R3vuw2SqdPAQTDo-3" target="_4646R3vuw2SqdPAQTDo-184">
          <mxGeometry relative="1" as="geometry" />
        </mxCell>
        <mxCell id="_4646R3vuw2SqdPAQTDo-3" value="Dia, Mes" style="shape=card;whiteSpace=wrap;html=1;fillColor=#fff2cc;strokeColor=#d6b656;" vertex="1" parent="1">
          <mxGeometry x="119" y="130" width="80" height="50" as="geometry" />
        </mxCell>
        <mxCell id="_4646R3vuw2SqdPAQTDo-4" style="edgeStyle=orthogonalEdgeStyle;rounded=0;orthogonalLoop=1;jettySize=auto;html=1;exitX=0.5;exitY=1;exitDx=0;exitDy=0;entryX=0.5;entryY=0;entryDx=0;entryDy=0;entryPerimeter=0;" edge="1" parent="1" source="_4646R3vuw2SqdPAQTDo-1" target="_4646R3vuw2SqdPAQTDo-3">
          <mxGeometry relative="1" as="geometry" />
        </mxCell>
        <mxCell id="_4646R3vuw2SqdPAQTDo-6" style="edgeStyle=orthogonalEdgeStyle;rounded=0;orthogonalLoop=1;jettySize=auto;html=1;exitX=0;exitY=0.5;exitDx=0;exitDy=0;entryX=0;entryY=0;entryDx=0;entryDy=30;entryPerimeter=0;" edge="1" parent="1" source="_4646R3vuw2SqdPAQTDo-2" target="_4646R3vuw2SqdPAQTDo-3">
          <mxGeometry relative="1" as="geometry">
            <Array as="points">
              <mxPoint x="39" y="460" />
              <mxPoint x="-40" y="460" />
              <mxPoint x="-40" y="160" />
            </Array>
          </mxGeometry>
        </mxCell>
        <mxCell id="_4646R3vuw2SqdPAQTDo-10" style="edgeStyle=orthogonalEdgeStyle;rounded=0;orthogonalLoop=1;jettySize=auto;html=1;exitX=0.5;exitY=1;exitDx=0;exitDy=0;entryX=0.5;entryY=0;entryDx=0;entryDy=0;" edge="1" parent="1" source="_4646R3vuw2SqdPAQTDo-7" target="_4646R3vuw2SqdPAQTDo-9">
          <mxGeometry relative="1" as="geometry" />
        </mxCell>
        <mxCell id="_4646R3vuw2SqdPAQTDo-7" value="Estacao_Ano(Dia, Mes)" style="rounded=0;whiteSpace=wrap;html=1;fillColor=#e1d5e7;strokeColor=#9673a6;" vertex="1" parent="1">
          <mxGeometry x="88.5" y="531" width="141" height="60" as="geometry" />
        </mxCell>
        <mxCell id="_4646R3vuw2SqdPAQTDo-9" value="" style="ellipse;whiteSpace=wrap;html=1;aspect=fixed;fillColor=#f8cecc;strokeColor=#b85450;" vertex="1" parent="1">
          <mxGeometry x="134" y="611" width="50" height="50" as="geometry" />
        </mxCell>
        <mxCell id="_4646R3vuw2SqdPAQTDo-11" value="Estacao_Ano" style="text;html=1;align=center;verticalAlign=middle;resizable=0;points=[];autosize=1;strokeColor=none;fillColor=none;fontSize=23;fontStyle=1" vertex="1" parent="1">
          <mxGeometry x="1060" y="60" width="160" height="40" as="geometry" />
        </mxCell>
        <mxCell id="_4646R3vuw2SqdPAQTDo-12" value="Main" style="text;html=1;align=center;verticalAlign=middle;resizable=0;points=[];autosize=1;strokeColor=none;fillColor=none;fontSize=23;fontStyle=1" vertex="1" parent="1">
          <mxGeometry x="124" y="20" width="70" height="40" as="geometry" />
        </mxCell>
        <mxCell id="_4646R3vuw2SqdPAQTDo-13" value="Entrada: int Dia, int Mes&lt;div&gt;Saída: Nenhum&lt;/div&gt;" style="text;html=1;align=center;verticalAlign=middle;resizable=0;points=[];autosize=1;strokeColor=none;fillColor=none;" vertex="1" parent="1">
          <mxGeometry x="1065" y="100" width="150" height="40" as="geometry" />
        </mxCell>
        <mxCell id="_4646R3vuw2SqdPAQTDo-18" style="edgeStyle=orthogonalEdgeStyle;rounded=0;orthogonalLoop=1;jettySize=auto;html=1;exitX=0.5;exitY=1;exitDx=0;exitDy=0;entryX=0.5;entryY=0;entryDx=0;entryDy=0;" edge="1" parent="1" source="_4646R3vuw2SqdPAQTDo-14" target="_4646R3vuw2SqdPAQTDo-17">
          <mxGeometry relative="1" as="geometry" />
        </mxCell>
        <mxCell id="_4646R3vuw2SqdPAQTDo-14" value="" style="ellipse;whiteSpace=wrap;html=1;aspect=fixed;fillColor=#d5e8d4;strokeColor=#82b366;" vertex="1" parent="1">
          <mxGeometry x="1115" y="140" width="50" height="50" as="geometry" />
        </mxCell>
        <mxCell id="_4646R3vuw2SqdPAQTDo-21" style="edgeStyle=orthogonalEdgeStyle;rounded=0;orthogonalLoop=1;jettySize=auto;html=1;exitX=1;exitY=0.5;exitDx=0;exitDy=0;entryX=0.5;entryY=0;entryDx=0;entryDy=0;" edge="1" parent="1" source="_4646R3vuw2SqdPAQTDo-15" target="_4646R3vuw2SqdPAQTDo-20">
          <mxGeometry relative="1" as="geometry" />
        </mxCell>
        <mxCell id="_4646R3vuw2SqdPAQTDo-166" value="V" style="edgeLabel;html=1;align=center;verticalAlign=middle;resizable=0;points=[];" vertex="1" connectable="0" parent="_4646R3vuw2SqdPAQTDo-21">
          <mxGeometry x="-0.1178" relative="1" as="geometry">
            <mxPoint as="offset" />
          </mxGeometry>
        </mxCell>
        <mxCell id="_4646R3vuw2SqdPAQTDo-55" style="edgeStyle=orthogonalEdgeStyle;rounded=0;orthogonalLoop=1;jettySize=auto;html=1;exitX=0;exitY=0.5;exitDx=0;exitDy=0;entryX=0.5;entryY=0;entryDx=0;entryDy=0;" edge="1" parent="1" source="_4646R3vuw2SqdPAQTDo-15" target="_4646R3vuw2SqdPAQTDo-54">
          <mxGeometry relative="1" as="geometry" />
        </mxCell>
        <mxCell id="_4646R3vuw2SqdPAQTDo-58" value="F" style="edgeLabel;html=1;align=center;verticalAlign=middle;resizable=0;points=[];" vertex="1" connectable="0" parent="_4646R3vuw2SqdPAQTDo-55">
          <mxGeometry x="-0.2432" y="-1" relative="1" as="geometry">
            <mxPoint as="offset" />
          </mxGeometry>
        </mxCell>
        <mxCell id="_4646R3vuw2SqdPAQTDo-15" value="Mes != 3 &amp;amp;&amp;amp; Mes != 6 &amp;amp;&amp;amp; Mes != 9 &amp;amp;&amp;amp; Mes != 12" style="rhombus;whiteSpace=wrap;html=1;fillColor=#ffe6cc;strokeColor=#d79b00;" vertex="1" parent="1">
          <mxGeometry x="1070" y="300" width="140" height="130" as="geometry" />
        </mxCell>
        <mxCell id="_4646R3vuw2SqdPAQTDo-19" style="edgeStyle=orthogonalEdgeStyle;rounded=0;orthogonalLoop=1;jettySize=auto;html=1;exitX=0.5;exitY=0;exitDx=0;exitDy=0;entryX=0.5;entryY=0;entryDx=0;entryDy=0;" edge="1" parent="1" source="_4646R3vuw2SqdPAQTDo-17" target="_4646R3vuw2SqdPAQTDo-15">
          <mxGeometry relative="1" as="geometry">
            <Array as="points">
              <mxPoint x="1140" y="260" />
              <mxPoint x="1140" y="260" />
            </Array>
          </mxGeometry>
        </mxCell>
        <mxCell id="_4646R3vuw2SqdPAQTDo-17" value="Dia&quot;/&quot;mes" style="shape=document;whiteSpace=wrap;html=1;boundedLbl=1;fillColor=#dae8fc;strokeColor=#6c8ebf;" vertex="1" parent="1">
          <mxGeometry x="1080" y="210" width="120" height="80" as="geometry" />
        </mxCell>
        <mxCell id="_4646R3vuw2SqdPAQTDo-151" style="edgeStyle=orthogonalEdgeStyle;rounded=0;orthogonalLoop=1;jettySize=auto;html=1;exitX=0;exitY=0.5;exitDx=0;exitDy=0;entryX=0.5;entryY=0;entryDx=0;entryDy=0;" edge="1" parent="1" source="_4646R3vuw2SqdPAQTDo-20" target="_4646R3vuw2SqdPAQTDo-22">
          <mxGeometry relative="1" as="geometry" />
        </mxCell>
        <mxCell id="_4646R3vuw2SqdPAQTDo-168" value="&lt;div&gt;&lt;br&gt;&lt;/div&gt;&lt;div&gt;F&lt;/div&gt;" style="edgeLabel;html=1;align=center;verticalAlign=middle;resizable=0;points=[];" vertex="1" connectable="0" parent="_4646R3vuw2SqdPAQTDo-151">
          <mxGeometry x="-0.34" y="-1" relative="1" as="geometry">
            <mxPoint as="offset" />
          </mxGeometry>
        </mxCell>
        <mxCell id="_4646R3vuw2SqdPAQTDo-155" style="edgeStyle=orthogonalEdgeStyle;rounded=0;orthogonalLoop=1;jettySize=auto;html=1;exitX=1;exitY=0.5;exitDx=0;exitDy=0;" edge="1" parent="1" source="_4646R3vuw2SqdPAQTDo-20" target="_4646R3vuw2SqdPAQTDo-28">
          <mxGeometry relative="1" as="geometry" />
        </mxCell>
        <mxCell id="_4646R3vuw2SqdPAQTDo-167" value="V" style="edgeLabel;html=1;align=center;verticalAlign=middle;resizable=0;points=[];" vertex="1" connectable="0" parent="_4646R3vuw2SqdPAQTDo-155">
          <mxGeometry x="-0.3333" y="-4" relative="1" as="geometry">
            <mxPoint as="offset" />
          </mxGeometry>
        </mxCell>
        <mxCell id="_4646R3vuw2SqdPAQTDo-20" value="Mes &amp;lt; 3" style="rhombus;whiteSpace=wrap;html=1;fillColor=#ffe6cc;strokeColor=#d79b00;" vertex="1" parent="1">
          <mxGeometry x="1550" y="400" width="80" height="80" as="geometry" />
        </mxCell>
        <mxCell id="_4646R3vuw2SqdPAQTDo-152" style="edgeStyle=orthogonalEdgeStyle;rounded=0;orthogonalLoop=1;jettySize=auto;html=1;exitX=0;exitY=0.5;exitDx=0;exitDy=0;entryX=0.5;entryY=0;entryDx=0;entryDy=0;" edge="1" parent="1" source="_4646R3vuw2SqdPAQTDo-22" target="_4646R3vuw2SqdPAQTDo-25">
          <mxGeometry relative="1" as="geometry" />
        </mxCell>
        <mxCell id="_4646R3vuw2SqdPAQTDo-170" value="F" style="edgeLabel;html=1;align=center;verticalAlign=middle;resizable=0;points=[];" vertex="1" connectable="0" parent="_4646R3vuw2SqdPAQTDo-152">
          <mxGeometry x="-0.2615" relative="1" as="geometry">
            <mxPoint as="offset" />
          </mxGeometry>
        </mxCell>
        <mxCell id="_4646R3vuw2SqdPAQTDo-153" style="edgeStyle=orthogonalEdgeStyle;rounded=0;orthogonalLoop=1;jettySize=auto;html=1;exitX=1;exitY=0.5;exitDx=0;exitDy=0;entryX=0.5;entryY=0;entryDx=0;entryDy=0;" edge="1" parent="1" source="_4646R3vuw2SqdPAQTDo-22" target="_4646R3vuw2SqdPAQTDo-30">
          <mxGeometry relative="1" as="geometry" />
        </mxCell>
        <mxCell id="_4646R3vuw2SqdPAQTDo-169" value="V" style="edgeLabel;html=1;align=center;verticalAlign=middle;resizable=0;points=[];" vertex="1" connectable="0" parent="_4646R3vuw2SqdPAQTDo-153">
          <mxGeometry x="-0.5467" y="2" relative="1" as="geometry">
            <mxPoint as="offset" />
          </mxGeometry>
        </mxCell>
        <mxCell id="_4646R3vuw2SqdPAQTDo-22" value="Mes &amp;lt; 6" style="rhombus;whiteSpace=wrap;html=1;fillColor=#ffe6cc;strokeColor=#d79b00;" vertex="1" parent="1">
          <mxGeometry x="1430" y="460" width="80" height="80" as="geometry" />
        </mxCell>
        <mxCell id="_4646R3vuw2SqdPAQTDo-179" style="edgeStyle=orthogonalEdgeStyle;rounded=0;orthogonalLoop=1;jettySize=auto;html=1;exitX=0.5;exitY=0;exitDx=0;exitDy=0;entryX=1;entryY=0.5;entryDx=0;entryDy=0;" edge="1" parent="1" source="_4646R3vuw2SqdPAQTDo-28" target="_4646R3vuw2SqdPAQTDo-177">
          <mxGeometry relative="1" as="geometry">
            <Array as="points">
              <mxPoint x="1675" y="732" />
            </Array>
          </mxGeometry>
        </mxCell>
        <mxCell id="_4646R3vuw2SqdPAQTDo-28" value="&quot; é Verão&quot;" style="shape=document;whiteSpace=wrap;html=1;boundedLbl=1;fillColor=#dae8fc;strokeColor=#6c8ebf;" vertex="1" parent="1">
          <mxGeometry x="1630" y="470" width="90" height="60" as="geometry" />
        </mxCell>
        <mxCell id="_4646R3vuw2SqdPAQTDo-176" style="edgeStyle=orthogonalEdgeStyle;rounded=0;orthogonalLoop=1;jettySize=auto;html=1;exitX=0.5;exitY=0;exitDx=0;exitDy=0;entryX=1;entryY=0.5;entryDx=0;entryDy=0;" edge="1" parent="1" source="_4646R3vuw2SqdPAQTDo-30" target="_4646R3vuw2SqdPAQTDo-174">
          <mxGeometry relative="1" as="geometry">
            <Array as="points">
              <mxPoint x="1555" y="702" />
            </Array>
          </mxGeometry>
        </mxCell>
        <mxCell id="_4646R3vuw2SqdPAQTDo-30" value="&quot; é Outono&quot;" style="shape=document;whiteSpace=wrap;html=1;boundedLbl=1;fillColor=#dae8fc;strokeColor=#6c8ebf;" vertex="1" parent="1">
          <mxGeometry x="1510" y="530" width="90" height="60" as="geometry" />
        </mxCell>
        <mxCell id="_4646R3vuw2SqdPAQTDo-138" style="edgeStyle=orthogonalEdgeStyle;rounded=0;orthogonalLoop=1;jettySize=auto;html=1;exitX=1;exitY=0.5;exitDx=0;exitDy=0;entryX=0.5;entryY=0;entryDx=0;entryDy=0;" edge="1" parent="1" source="_4646R3vuw2SqdPAQTDo-54" target="_4646R3vuw2SqdPAQTDo-56">
          <mxGeometry relative="1" as="geometry" />
        </mxCell>
        <mxCell id="_4646R3vuw2SqdPAQTDo-144" value="V" style="edgeLabel;html=1;align=center;verticalAlign=middle;resizable=0;points=[];" vertex="1" connectable="0" parent="_4646R3vuw2SqdPAQTDo-138">
          <mxGeometry x="-0.3667" y="4" relative="1" as="geometry">
            <mxPoint as="offset" />
          </mxGeometry>
        </mxCell>
        <mxCell id="_4646R3vuw2SqdPAQTDo-139" style="edgeStyle=orthogonalEdgeStyle;rounded=0;orthogonalLoop=1;jettySize=auto;html=1;exitX=0;exitY=0.5;exitDx=0;exitDy=0;entryX=0.5;entryY=0;entryDx=0;entryDy=0;" edge="1" parent="1" source="_4646R3vuw2SqdPAQTDo-54" target="_4646R3vuw2SqdPAQTDo-68">
          <mxGeometry relative="1" as="geometry" />
        </mxCell>
        <mxCell id="_4646R3vuw2SqdPAQTDo-145" value="F" style="edgeLabel;html=1;align=center;verticalAlign=middle;resizable=0;points=[];" vertex="1" connectable="0" parent="_4646R3vuw2SqdPAQTDo-139">
          <mxGeometry x="-0.346" y="-2" relative="1" as="geometry">
            <mxPoint as="offset" />
          </mxGeometry>
        </mxCell>
        <mxCell id="_4646R3vuw2SqdPAQTDo-54" value="Mes == 3" style="rhombus;whiteSpace=wrap;html=1;fillColor=#ffe6cc;strokeColor=#d79b00;" vertex="1" parent="1">
          <mxGeometry x="920" y="400" width="80" height="80" as="geometry" />
        </mxCell>
        <mxCell id="_4646R3vuw2SqdPAQTDo-140" style="edgeStyle=orthogonalEdgeStyle;rounded=0;orthogonalLoop=1;jettySize=auto;html=1;exitX=1;exitY=0.5;exitDx=0;exitDy=0;entryX=0.5;entryY=0;entryDx=0;entryDy=0;" edge="1" parent="1" source="_4646R3vuw2SqdPAQTDo-68" target="_4646R3vuw2SqdPAQTDo-67">
          <mxGeometry relative="1" as="geometry" />
        </mxCell>
        <mxCell id="_4646R3vuw2SqdPAQTDo-146" value="V" style="edgeLabel;html=1;align=center;verticalAlign=middle;resizable=0;points=[];" vertex="1" connectable="0" parent="_4646R3vuw2SqdPAQTDo-140">
          <mxGeometry x="-0.2519" y="2" relative="1" as="geometry">
            <mxPoint as="offset" />
          </mxGeometry>
        </mxCell>
        <mxCell id="_4646R3vuw2SqdPAQTDo-141" style="edgeStyle=orthogonalEdgeStyle;rounded=0;orthogonalLoop=1;jettySize=auto;html=1;exitX=0;exitY=0.5;exitDx=0;exitDy=0;entryX=0.5;entryY=0;entryDx=0;entryDy=0;" edge="1" parent="1" source="_4646R3vuw2SqdPAQTDo-68" target="_4646R3vuw2SqdPAQTDo-83">
          <mxGeometry relative="1" as="geometry" />
        </mxCell>
        <mxCell id="_4646R3vuw2SqdPAQTDo-147" value="F" style="edgeLabel;html=1;align=center;verticalAlign=middle;resizable=0;points=[];" vertex="1" connectable="0" parent="_4646R3vuw2SqdPAQTDo-141">
          <mxGeometry x="-0.1815" y="-4" relative="1" as="geometry">
            <mxPoint as="offset" />
          </mxGeometry>
        </mxCell>
        <mxCell id="_4646R3vuw2SqdPAQTDo-68" value="Mes == 6" style="rhombus;whiteSpace=wrap;html=1;fillColor=#ffe6cc;strokeColor=#d79b00;" vertex="1" parent="1">
          <mxGeometry x="689" y="460" width="80" height="80" as="geometry" />
        </mxCell>
        <mxCell id="_4646R3vuw2SqdPAQTDo-142" style="edgeStyle=orthogonalEdgeStyle;rounded=0;orthogonalLoop=1;jettySize=auto;html=1;exitX=1;exitY=0.5;exitDx=0;exitDy=0;entryX=0.5;entryY=0;entryDx=0;entryDy=0;" edge="1" parent="1" source="_4646R3vuw2SqdPAQTDo-83" target="_4646R3vuw2SqdPAQTDo-86">
          <mxGeometry relative="1" as="geometry" />
        </mxCell>
        <mxCell id="_4646R3vuw2SqdPAQTDo-148" value="V" style="edgeLabel;html=1;align=center;verticalAlign=middle;resizable=0;points=[];" vertex="1" connectable="0" parent="_4646R3vuw2SqdPAQTDo-142">
          <mxGeometry x="-0.3647" y="2" relative="1" as="geometry">
            <mxPoint as="offset" />
          </mxGeometry>
        </mxCell>
        <mxCell id="_4646R3vuw2SqdPAQTDo-143" style="edgeStyle=orthogonalEdgeStyle;rounded=0;orthogonalLoop=1;jettySize=auto;html=1;exitX=0;exitY=0.5;exitDx=0;exitDy=0;" edge="1" parent="1" source="_4646R3vuw2SqdPAQTDo-83">
          <mxGeometry relative="1" as="geometry">
            <mxPoint x="330" y="640" as="targetPoint" />
          </mxGeometry>
        </mxCell>
        <mxCell id="_4646R3vuw2SqdPAQTDo-149" value="F" style="edgeLabel;html=1;align=center;verticalAlign=middle;resizable=0;points=[];" vertex="1" connectable="0" parent="_4646R3vuw2SqdPAQTDo-143">
          <mxGeometry x="-0.4734" y="1" relative="1" as="geometry">
            <mxPoint as="offset" />
          </mxGeometry>
        </mxCell>
        <mxCell id="_4646R3vuw2SqdPAQTDo-83" value="Mes == 9" style="rhombus;whiteSpace=wrap;html=1;fillColor=#ffe6cc;strokeColor=#d79b00;" vertex="1" parent="1">
          <mxGeometry x="430" y="540" width="80" height="80" as="geometry" />
        </mxCell>
        <mxCell id="_4646R3vuw2SqdPAQTDo-134" value="" style="group" vertex="1" connectable="0" parent="1">
          <mxGeometry x="970" y="460" width="260" height="165" as="geometry" />
        </mxCell>
        <mxCell id="_4646R3vuw2SqdPAQTDo-72" style="edgeStyle=orthogonalEdgeStyle;rounded=0;orthogonalLoop=1;jettySize=auto;html=1;exitX=1;exitY=0.5;exitDx=0;exitDy=0;entryX=0.5;entryY=0;entryDx=0;entryDy=0;" edge="1" parent="_4646R3vuw2SqdPAQTDo-134" source="_4646R3vuw2SqdPAQTDo-56" target="_4646R3vuw2SqdPAQTDo-71">
          <mxGeometry relative="1" as="geometry" />
        </mxCell>
        <mxCell id="_4646R3vuw2SqdPAQTDo-73" value="V" style="edgeLabel;html=1;align=center;verticalAlign=middle;resizable=0;points=[];" vertex="1" connectable="0" parent="_4646R3vuw2SqdPAQTDo-72">
          <mxGeometry x="-0.4684" y="4" relative="1" as="geometry">
            <mxPoint as="offset" />
          </mxGeometry>
        </mxCell>
        <mxCell id="_4646R3vuw2SqdPAQTDo-75" style="edgeStyle=orthogonalEdgeStyle;rounded=0;orthogonalLoop=1;jettySize=auto;html=1;exitX=0;exitY=0.5;exitDx=0;exitDy=0;entryX=0.5;entryY=0;entryDx=0;entryDy=0;" edge="1" parent="_4646R3vuw2SqdPAQTDo-134" source="_4646R3vuw2SqdPAQTDo-56" target="_4646R3vuw2SqdPAQTDo-74">
          <mxGeometry relative="1" as="geometry" />
        </mxCell>
        <mxCell id="_4646R3vuw2SqdPAQTDo-76" value="F" style="edgeLabel;html=1;align=center;verticalAlign=middle;resizable=0;points=[];" vertex="1" connectable="0" parent="_4646R3vuw2SqdPAQTDo-75">
          <mxGeometry x="-0.3924" relative="1" as="geometry">
            <mxPoint as="offset" />
          </mxGeometry>
        </mxCell>
        <mxCell id="_4646R3vuw2SqdPAQTDo-56" value="Dia &amp;lt; 21" style="rhombus;whiteSpace=wrap;html=1;fillColor=#ffe6cc;strokeColor=#d79b00;" vertex="1" parent="_4646R3vuw2SqdPAQTDo-134">
          <mxGeometry x="90" width="80" height="80" as="geometry" />
        </mxCell>
        <mxCell id="_4646R3vuw2SqdPAQTDo-131" style="edgeStyle=orthogonalEdgeStyle;rounded=0;orthogonalLoop=1;jettySize=auto;html=1;exitX=0.5;exitY=0;exitDx=0;exitDy=0;entryX=1;entryY=0.5;entryDx=0;entryDy=0;" edge="1" parent="_4646R3vuw2SqdPAQTDo-134" source="_4646R3vuw2SqdPAQTDo-71" target="_4646R3vuw2SqdPAQTDo-130">
          <mxGeometry relative="1" as="geometry">
            <Array as="points">
              <mxPoint x="215" y="150" />
            </Array>
          </mxGeometry>
        </mxCell>
        <mxCell id="_4646R3vuw2SqdPAQTDo-71" value="&quot; é Verão&quot;" style="shape=document;whiteSpace=wrap;html=1;boundedLbl=1;fillColor=#dae8fc;strokeColor=#6c8ebf;" vertex="1" parent="_4646R3vuw2SqdPAQTDo-134">
          <mxGeometry x="170" y="74" width="90" height="60" as="geometry" />
        </mxCell>
        <mxCell id="_4646R3vuw2SqdPAQTDo-132" style="edgeStyle=orthogonalEdgeStyle;rounded=0;orthogonalLoop=1;jettySize=auto;html=1;exitX=0.5;exitY=0;exitDx=0;exitDy=0;entryX=0;entryY=0.5;entryDx=0;entryDy=0;" edge="1" parent="_4646R3vuw2SqdPAQTDo-134" source="_4646R3vuw2SqdPAQTDo-74" target="_4646R3vuw2SqdPAQTDo-130">
          <mxGeometry relative="1" as="geometry">
            <Array as="points">
              <mxPoint x="45" y="150" />
            </Array>
          </mxGeometry>
        </mxCell>
        <mxCell id="_4646R3vuw2SqdPAQTDo-74" value="&quot; é Outono&quot;" style="shape=document;whiteSpace=wrap;html=1;boundedLbl=1;fillColor=#dae8fc;strokeColor=#6c8ebf;" vertex="1" parent="_4646R3vuw2SqdPAQTDo-134">
          <mxGeometry y="74" width="90" height="60" as="geometry" />
        </mxCell>
        <mxCell id="_4646R3vuw2SqdPAQTDo-130" value="" style="ellipse;whiteSpace=wrap;html=1;aspect=fixed;fillColor=#ffe6cc;strokeColor=#d79b00;" vertex="1" parent="_4646R3vuw2SqdPAQTDo-134">
          <mxGeometry x="115" y="135" width="30" height="30" as="geometry" />
        </mxCell>
        <mxCell id="_4646R3vuw2SqdPAQTDo-135" value="" style="group" vertex="1" connectable="0" parent="1">
          <mxGeometry x="740" y="530" width="260" height="197" as="geometry" />
        </mxCell>
        <mxCell id="_4646R3vuw2SqdPAQTDo-78" style="edgeStyle=orthogonalEdgeStyle;rounded=0;orthogonalLoop=1;jettySize=auto;html=1;exitX=1;exitY=0.5;exitDx=0;exitDy=0;entryX=0.5;entryY=0;entryDx=0;entryDy=0;" edge="1" parent="_4646R3vuw2SqdPAQTDo-135" source="_4646R3vuw2SqdPAQTDo-67" target="_4646R3vuw2SqdPAQTDo-77">
          <mxGeometry relative="1" as="geometry" />
        </mxCell>
        <mxCell id="_4646R3vuw2SqdPAQTDo-82" value="V" style="edgeLabel;html=1;align=center;verticalAlign=middle;resizable=0;points=[];" vertex="1" connectable="0" parent="_4646R3vuw2SqdPAQTDo-78">
          <mxGeometry x="-0.525" relative="1" as="geometry">
            <mxPoint as="offset" />
          </mxGeometry>
        </mxCell>
        <mxCell id="_4646R3vuw2SqdPAQTDo-80" style="edgeStyle=orthogonalEdgeStyle;rounded=0;orthogonalLoop=1;jettySize=auto;html=1;exitX=0;exitY=0.5;exitDx=0;exitDy=0;entryX=0.5;entryY=0;entryDx=0;entryDy=0;" edge="1" parent="_4646R3vuw2SqdPAQTDo-135" source="_4646R3vuw2SqdPAQTDo-67" target="_4646R3vuw2SqdPAQTDo-79">
          <mxGeometry relative="1" as="geometry" />
        </mxCell>
        <mxCell id="_4646R3vuw2SqdPAQTDo-81" value="F" style="edgeLabel;html=1;align=center;verticalAlign=middle;resizable=0;points=[];" vertex="1" connectable="0" parent="_4646R3vuw2SqdPAQTDo-80">
          <mxGeometry x="-0.4824" y="-1" relative="1" as="geometry">
            <mxPoint as="offset" />
          </mxGeometry>
        </mxCell>
        <mxCell id="_4646R3vuw2SqdPAQTDo-67" value="Dia &amp;lt; 21" style="rhombus;whiteSpace=wrap;html=1;fillColor=#ffe6cc;strokeColor=#d79b00;" vertex="1" parent="_4646R3vuw2SqdPAQTDo-135">
          <mxGeometry x="90" width="80" height="80" as="geometry" />
        </mxCell>
        <mxCell id="_4646R3vuw2SqdPAQTDo-128" style="edgeStyle=orthogonalEdgeStyle;rounded=0;orthogonalLoop=1;jettySize=auto;html=1;exitX=0.5;exitY=0;exitDx=0;exitDy=0;entryX=1;entryY=0.5;entryDx=0;entryDy=0;" edge="1" parent="_4646R3vuw2SqdPAQTDo-135" source="_4646R3vuw2SqdPAQTDo-77" target="_4646R3vuw2SqdPAQTDo-127">
          <mxGeometry relative="1" as="geometry">
            <Array as="points">
              <mxPoint x="215" y="182" />
            </Array>
          </mxGeometry>
        </mxCell>
        <mxCell id="_4646R3vuw2SqdPAQTDo-77" value="&quot; é Outono&quot;" style="shape=document;whiteSpace=wrap;html=1;boundedLbl=1;fillColor=#dae8fc;strokeColor=#6c8ebf;" vertex="1" parent="_4646R3vuw2SqdPAQTDo-135">
          <mxGeometry x="170" y="106" width="90" height="60" as="geometry" />
        </mxCell>
        <mxCell id="_4646R3vuw2SqdPAQTDo-129" style="edgeStyle=orthogonalEdgeStyle;rounded=0;orthogonalLoop=1;jettySize=auto;html=1;exitX=0.5;exitY=0;exitDx=0;exitDy=0;entryX=0;entryY=0.5;entryDx=0;entryDy=0;" edge="1" parent="_4646R3vuw2SqdPAQTDo-135" source="_4646R3vuw2SqdPAQTDo-79" target="_4646R3vuw2SqdPAQTDo-127">
          <mxGeometry relative="1" as="geometry">
            <Array as="points">
              <mxPoint x="45" y="182" />
            </Array>
          </mxGeometry>
        </mxCell>
        <mxCell id="_4646R3vuw2SqdPAQTDo-79" value="&quot; é Inverno&quot;" style="shape=document;whiteSpace=wrap;html=1;boundedLbl=1;fillColor=#dae8fc;strokeColor=#6c8ebf;" vertex="1" parent="_4646R3vuw2SqdPAQTDo-135">
          <mxGeometry y="106" width="90" height="60" as="geometry" />
        </mxCell>
        <mxCell id="_4646R3vuw2SqdPAQTDo-127" value="" style="ellipse;whiteSpace=wrap;html=1;aspect=fixed;fillColor=#ffe6cc;strokeColor=#d79b00;" vertex="1" parent="_4646R3vuw2SqdPAQTDo-135">
          <mxGeometry x="115" y="167" width="30" height="30" as="geometry" />
        </mxCell>
        <mxCell id="_4646R3vuw2SqdPAQTDo-136" value="" style="group" vertex="1" connectable="0" parent="1">
          <mxGeometry x="490" y="640" width="260" height="176" as="geometry" />
        </mxCell>
        <mxCell id="_4646R3vuw2SqdPAQTDo-88" style="edgeStyle=orthogonalEdgeStyle;rounded=0;orthogonalLoop=1;jettySize=auto;html=1;exitX=1;exitY=0.5;exitDx=0;exitDy=0;entryX=0.5;entryY=0;entryDx=0;entryDy=0;" edge="1" parent="_4646R3vuw2SqdPAQTDo-136" source="_4646R3vuw2SqdPAQTDo-86" target="_4646R3vuw2SqdPAQTDo-87">
          <mxGeometry relative="1" as="geometry" />
        </mxCell>
        <mxCell id="_4646R3vuw2SqdPAQTDo-98" value="V" style="edgeLabel;html=1;align=center;verticalAlign=middle;resizable=0;points=[];" vertex="1" connectable="0" parent="_4646R3vuw2SqdPAQTDo-88">
          <mxGeometry x="-0.5294" y="1" relative="1" as="geometry">
            <mxPoint as="offset" />
          </mxGeometry>
        </mxCell>
        <mxCell id="_4646R3vuw2SqdPAQTDo-90" style="edgeStyle=orthogonalEdgeStyle;rounded=0;orthogonalLoop=1;jettySize=auto;html=1;exitX=0;exitY=0.5;exitDx=0;exitDy=0;entryX=0.5;entryY=0;entryDx=0;entryDy=0;" edge="1" parent="_4646R3vuw2SqdPAQTDo-136" source="_4646R3vuw2SqdPAQTDo-86" target="_4646R3vuw2SqdPAQTDo-89">
          <mxGeometry relative="1" as="geometry" />
        </mxCell>
        <mxCell id="_4646R3vuw2SqdPAQTDo-97" value="F" style="edgeLabel;html=1;align=center;verticalAlign=middle;resizable=0;points=[];" vertex="1" connectable="0" parent="_4646R3vuw2SqdPAQTDo-90">
          <mxGeometry x="-0.5824" y="-2" relative="1" as="geometry">
            <mxPoint as="offset" />
          </mxGeometry>
        </mxCell>
        <mxCell id="_4646R3vuw2SqdPAQTDo-86" value="Dia &amp;lt; 23" style="rhombus;whiteSpace=wrap;html=1;fillColor=#ffe6cc;strokeColor=#d79b00;" vertex="1" parent="_4646R3vuw2SqdPAQTDo-136">
          <mxGeometry x="90" width="80" height="80" as="geometry" />
        </mxCell>
        <mxCell id="_4646R3vuw2SqdPAQTDo-119" style="edgeStyle=orthogonalEdgeStyle;rounded=0;orthogonalLoop=1;jettySize=auto;html=1;exitX=0.5;exitY=0;exitDx=0;exitDy=0;entryX=1;entryY=0.5;entryDx=0;entryDy=0;" edge="1" parent="_4646R3vuw2SqdPAQTDo-136" source="_4646R3vuw2SqdPAQTDo-87" target="_4646R3vuw2SqdPAQTDo-118">
          <mxGeometry relative="1" as="geometry">
            <Array as="points">
              <mxPoint x="215" y="161" />
            </Array>
          </mxGeometry>
        </mxCell>
        <mxCell id="_4646R3vuw2SqdPAQTDo-87" value="&quot; é Inverno&quot;" style="shape=document;whiteSpace=wrap;html=1;boundedLbl=1;fillColor=#dae8fc;strokeColor=#6c8ebf;" vertex="1" parent="_4646R3vuw2SqdPAQTDo-136">
          <mxGeometry x="170" y="86" width="90" height="60" as="geometry" />
        </mxCell>
        <mxCell id="_4646R3vuw2SqdPAQTDo-120" style="edgeStyle=orthogonalEdgeStyle;rounded=0;orthogonalLoop=1;jettySize=auto;html=1;exitX=0.5;exitY=0;exitDx=0;exitDy=0;entryX=0;entryY=0.5;entryDx=0;entryDy=0;" edge="1" parent="_4646R3vuw2SqdPAQTDo-136" source="_4646R3vuw2SqdPAQTDo-89" target="_4646R3vuw2SqdPAQTDo-118">
          <mxGeometry relative="1" as="geometry">
            <Array as="points">
              <mxPoint x="45" y="161" />
            </Array>
          </mxGeometry>
        </mxCell>
        <mxCell id="_4646R3vuw2SqdPAQTDo-89" value="&quot; é Primavera&quot;" style="shape=document;whiteSpace=wrap;html=1;boundedLbl=1;fillColor=#dae8fc;strokeColor=#6c8ebf;" vertex="1" parent="_4646R3vuw2SqdPAQTDo-136">
          <mxGeometry y="87" width="90" height="60" as="geometry" />
        </mxCell>
        <mxCell id="_4646R3vuw2SqdPAQTDo-118" value="" style="ellipse;whiteSpace=wrap;html=1;aspect=fixed;fillColor=#ffe6cc;strokeColor=#d79b00;" vertex="1" parent="_4646R3vuw2SqdPAQTDo-136">
          <mxGeometry x="115" y="146" width="30" height="30" as="geometry" />
        </mxCell>
        <mxCell id="_4646R3vuw2SqdPAQTDo-137" value="" style="group" vertex="1" connectable="0" parent="1">
          <mxGeometry x="199" y="639" width="260" height="177" as="geometry" />
        </mxCell>
        <mxCell id="_4646R3vuw2SqdPAQTDo-108" style="edgeStyle=orthogonalEdgeStyle;rounded=0;orthogonalLoop=1;jettySize=auto;html=1;exitX=1;exitY=0.5;exitDx=0;exitDy=0;entryX=0.5;entryY=0;entryDx=0;entryDy=0;" edge="1" parent="_4646R3vuw2SqdPAQTDo-137" source="_4646R3vuw2SqdPAQTDo-103" target="_4646R3vuw2SqdPAQTDo-107">
          <mxGeometry relative="1" as="geometry" />
        </mxCell>
        <mxCell id="_4646R3vuw2SqdPAQTDo-113" value="V" style="edgeLabel;html=1;align=center;verticalAlign=middle;resizable=0;points=[];" vertex="1" connectable="0" parent="_4646R3vuw2SqdPAQTDo-108">
          <mxGeometry x="-0.4588" y="2" relative="1" as="geometry">
            <mxPoint as="offset" />
          </mxGeometry>
        </mxCell>
        <mxCell id="_4646R3vuw2SqdPAQTDo-110" style="edgeStyle=orthogonalEdgeStyle;rounded=0;orthogonalLoop=1;jettySize=auto;html=1;exitX=0;exitY=0.5;exitDx=0;exitDy=0;entryX=0.5;entryY=0;entryDx=0;entryDy=0;" edge="1" parent="_4646R3vuw2SqdPAQTDo-137" source="_4646R3vuw2SqdPAQTDo-103" target="_4646R3vuw2SqdPAQTDo-109">
          <mxGeometry relative="1" as="geometry" />
        </mxCell>
        <mxCell id="_4646R3vuw2SqdPAQTDo-112" value="F" style="edgeLabel;html=1;align=center;verticalAlign=middle;resizable=0;points=[];" vertex="1" connectable="0" parent="_4646R3vuw2SqdPAQTDo-110">
          <mxGeometry x="-0.5368" y="-2" relative="1" as="geometry">
            <mxPoint as="offset" />
          </mxGeometry>
        </mxCell>
        <mxCell id="_4646R3vuw2SqdPAQTDo-103" value="Dia &amp;lt; 21" style="rhombus;whiteSpace=wrap;html=1;fillColor=#ffe6cc;strokeColor=#d79b00;" vertex="1" parent="_4646R3vuw2SqdPAQTDo-137">
          <mxGeometry x="90" width="80" height="80" as="geometry" />
        </mxCell>
        <mxCell id="_4646R3vuw2SqdPAQTDo-116" style="edgeStyle=orthogonalEdgeStyle;rounded=0;orthogonalLoop=1;jettySize=auto;html=1;exitX=0.5;exitY=0;exitDx=0;exitDy=0;entryX=1;entryY=0.5;entryDx=0;entryDy=0;" edge="1" parent="_4646R3vuw2SqdPAQTDo-137" source="_4646R3vuw2SqdPAQTDo-107" target="_4646R3vuw2SqdPAQTDo-115">
          <mxGeometry relative="1" as="geometry">
            <Array as="points">
              <mxPoint x="215" y="162" />
            </Array>
          </mxGeometry>
        </mxCell>
        <mxCell id="_4646R3vuw2SqdPAQTDo-107" value="&quot; é Primavera&quot;" style="shape=document;whiteSpace=wrap;html=1;boundedLbl=1;fillColor=#dae8fc;strokeColor=#6c8ebf;" vertex="1" parent="_4646R3vuw2SqdPAQTDo-137">
          <mxGeometry x="170" y="87" width="90" height="60" as="geometry" />
        </mxCell>
        <mxCell id="_4646R3vuw2SqdPAQTDo-117" style="edgeStyle=orthogonalEdgeStyle;rounded=0;orthogonalLoop=1;jettySize=auto;html=1;exitX=0.5;exitY=0;exitDx=0;exitDy=0;entryX=0;entryY=0.5;entryDx=0;entryDy=0;" edge="1" parent="_4646R3vuw2SqdPAQTDo-137" source="_4646R3vuw2SqdPAQTDo-109" target="_4646R3vuw2SqdPAQTDo-115">
          <mxGeometry relative="1" as="geometry">
            <Array as="points">
              <mxPoint x="45" y="162" />
            </Array>
          </mxGeometry>
        </mxCell>
        <mxCell id="_4646R3vuw2SqdPAQTDo-109" value="&quot; é Verão&quot;" style="shape=document;whiteSpace=wrap;html=1;boundedLbl=1;fillColor=#dae8fc;strokeColor=#6c8ebf;" vertex="1" parent="_4646R3vuw2SqdPAQTDo-137">
          <mxGeometry y="86" width="90" height="60" as="geometry" />
        </mxCell>
        <mxCell id="_4646R3vuw2SqdPAQTDo-115" value="" style="ellipse;whiteSpace=wrap;html=1;aspect=fixed;fillColor=#ffe6cc;strokeColor=#d79b00;" vertex="1" parent="_4646R3vuw2SqdPAQTDo-137">
          <mxGeometry x="115" y="147" width="30" height="30" as="geometry" />
        </mxCell>
        <mxCell id="_4646R3vuw2SqdPAQTDo-150" value="" style="group" vertex="1" connectable="0" parent="1">
          <mxGeometry x="1200" y="530" width="260" height="150" as="geometry" />
        </mxCell>
        <mxCell id="_4646R3vuw2SqdPAQTDo-33" style="edgeStyle=orthogonalEdgeStyle;rounded=0;orthogonalLoop=1;jettySize=auto;html=1;exitX=0;exitY=0.5;exitDx=0;exitDy=0;entryX=0.5;entryY=0;entryDx=0;entryDy=0;" edge="1" parent="_4646R3vuw2SqdPAQTDo-150" source="_4646R3vuw2SqdPAQTDo-25" target="_4646R3vuw2SqdPAQTDo-32">
          <mxGeometry relative="1" as="geometry" />
        </mxCell>
        <mxCell id="_4646R3vuw2SqdPAQTDo-172" value="F" style="edgeLabel;html=1;align=center;verticalAlign=middle;resizable=0;points=[];" vertex="1" connectable="0" parent="_4646R3vuw2SqdPAQTDo-33">
          <mxGeometry x="-0.44" y="-1" relative="1" as="geometry">
            <mxPoint as="offset" />
          </mxGeometry>
        </mxCell>
        <mxCell id="_4646R3vuw2SqdPAQTDo-35" style="edgeStyle=orthogonalEdgeStyle;rounded=0;orthogonalLoop=1;jettySize=auto;html=1;exitX=1;exitY=0.5;exitDx=0;exitDy=0;entryX=0.5;entryY=0;entryDx=0;entryDy=0;" edge="1" parent="_4646R3vuw2SqdPAQTDo-150" source="_4646R3vuw2SqdPAQTDo-25" target="_4646R3vuw2SqdPAQTDo-34">
          <mxGeometry relative="1" as="geometry" />
        </mxCell>
        <mxCell id="_4646R3vuw2SqdPAQTDo-171" value="V" style="edgeLabel;html=1;align=center;verticalAlign=middle;resizable=0;points=[];" vertex="1" connectable="0" parent="_4646R3vuw2SqdPAQTDo-35">
          <mxGeometry x="-0.3867" y="3" relative="1" as="geometry">
            <mxPoint as="offset" />
          </mxGeometry>
        </mxCell>
        <mxCell id="_4646R3vuw2SqdPAQTDo-25" value="Mes &amp;lt; 9" style="rhombus;whiteSpace=wrap;html=1;fillColor=#ffe6cc;strokeColor=#d79b00;" vertex="1" parent="_4646R3vuw2SqdPAQTDo-150">
          <mxGeometry x="90" width="80" height="80" as="geometry" />
        </mxCell>
        <mxCell id="_4646R3vuw2SqdPAQTDo-38" style="edgeStyle=orthogonalEdgeStyle;rounded=0;orthogonalLoop=1;jettySize=auto;html=1;exitX=0.5;exitY=0;exitDx=0;exitDy=0;" edge="1" parent="_4646R3vuw2SqdPAQTDo-150" source="_4646R3vuw2SqdPAQTDo-32" target="_4646R3vuw2SqdPAQTDo-36">
          <mxGeometry relative="1" as="geometry">
            <Array as="points">
              <mxPoint x="45" y="135" />
            </Array>
          </mxGeometry>
        </mxCell>
        <mxCell id="_4646R3vuw2SqdPAQTDo-32" value="&quot; é Inverno&quot;" style="shape=document;whiteSpace=wrap;html=1;boundedLbl=1;fillColor=#dae8fc;strokeColor=#6c8ebf;" vertex="1" parent="_4646R3vuw2SqdPAQTDo-150">
          <mxGeometry y="70" width="90" height="60" as="geometry" />
        </mxCell>
        <mxCell id="_4646R3vuw2SqdPAQTDo-37" style="edgeStyle=orthogonalEdgeStyle;rounded=0;orthogonalLoop=1;jettySize=auto;html=1;exitX=0.5;exitY=0;exitDx=0;exitDy=0;entryX=1;entryY=0.5;entryDx=0;entryDy=0;" edge="1" parent="_4646R3vuw2SqdPAQTDo-150" source="_4646R3vuw2SqdPAQTDo-34" target="_4646R3vuw2SqdPAQTDo-36">
          <mxGeometry relative="1" as="geometry">
            <Array as="points">
              <mxPoint x="215" y="135" />
            </Array>
          </mxGeometry>
        </mxCell>
        <mxCell id="_4646R3vuw2SqdPAQTDo-34" value="&quot; é Primavera&quot;" style="shape=document;whiteSpace=wrap;html=1;boundedLbl=1;fillColor=#dae8fc;strokeColor=#6c8ebf;" vertex="1" parent="_4646R3vuw2SqdPAQTDo-150">
          <mxGeometry x="170" y="70" width="90" height="60" as="geometry" />
        </mxCell>
        <mxCell id="_4646R3vuw2SqdPAQTDo-36" value="" style="ellipse;whiteSpace=wrap;html=1;aspect=fixed;fillColor=#ffe6cc;strokeColor=#d79b00;" vertex="1" parent="_4646R3vuw2SqdPAQTDo-150">
          <mxGeometry x="115" y="120" width="30" height="30" as="geometry" />
        </mxCell>
        <mxCell id="_4646R3vuw2SqdPAQTDo-161" style="edgeStyle=orthogonalEdgeStyle;rounded=0;orthogonalLoop=1;jettySize=auto;html=1;exitX=0.5;exitY=1;exitDx=0;exitDy=0;entryX=0;entryY=0.5;entryDx=0;entryDy=0;" edge="1" parent="1" source="_4646R3vuw2SqdPAQTDo-156" target="_4646R3vuw2SqdPAQTDo-159">
          <mxGeometry relative="1" as="geometry">
            <Array as="points">
              <mxPoint x="474" y="875" />
            </Array>
          </mxGeometry>
        </mxCell>
        <mxCell id="_4646R3vuw2SqdPAQTDo-156" value="" style="ellipse;whiteSpace=wrap;html=1;aspect=fixed;fillColor=#ffe6cc;strokeColor=#d79b00;" vertex="1" parent="1">
          <mxGeometry x="459" y="830" width="30" height="30" as="geometry" />
        </mxCell>
        <mxCell id="_4646R3vuw2SqdPAQTDo-157" style="edgeStyle=orthogonalEdgeStyle;rounded=0;orthogonalLoop=1;jettySize=auto;html=1;exitX=0.5;exitY=1;exitDx=0;exitDy=0;entryX=1;entryY=0.5;entryDx=0;entryDy=0;" edge="1" parent="1" source="_4646R3vuw2SqdPAQTDo-118" target="_4646R3vuw2SqdPAQTDo-156">
          <mxGeometry relative="1" as="geometry" />
        </mxCell>
        <mxCell id="_4646R3vuw2SqdPAQTDo-158" style="edgeStyle=orthogonalEdgeStyle;rounded=0;orthogonalLoop=1;jettySize=auto;html=1;exitX=0.5;exitY=1;exitDx=0;exitDy=0;entryX=0;entryY=0.5;entryDx=0;entryDy=0;" edge="1" parent="1" source="_4646R3vuw2SqdPAQTDo-115" target="_4646R3vuw2SqdPAQTDo-156">
          <mxGeometry relative="1" as="geometry" />
        </mxCell>
        <mxCell id="_4646R3vuw2SqdPAQTDo-165" style="edgeStyle=orthogonalEdgeStyle;rounded=0;orthogonalLoop=1;jettySize=auto;html=1;exitX=0.5;exitY=1;exitDx=0;exitDy=0;entryX=0;entryY=0.5;entryDx=0;entryDy=0;" edge="1" parent="1" source="_4646R3vuw2SqdPAQTDo-159" target="_4646R3vuw2SqdPAQTDo-163">
          <mxGeometry relative="1" as="geometry">
            <Array as="points">
              <mxPoint x="729" y="905" />
            </Array>
          </mxGeometry>
        </mxCell>
        <mxCell id="_4646R3vuw2SqdPAQTDo-159" value="" style="ellipse;whiteSpace=wrap;html=1;aspect=fixed;fillColor=#ffe6cc;strokeColor=#d79b00;" vertex="1" parent="1">
          <mxGeometry x="714" y="860" width="30" height="30" as="geometry" />
        </mxCell>
        <mxCell id="_4646R3vuw2SqdPAQTDo-162" style="edgeStyle=orthogonalEdgeStyle;rounded=0;orthogonalLoop=1;jettySize=auto;html=1;exitX=0.5;exitY=1;exitDx=0;exitDy=0;entryX=1;entryY=0.5;entryDx=0;entryDy=0;" edge="1" parent="1" source="_4646R3vuw2SqdPAQTDo-127" target="_4646R3vuw2SqdPAQTDo-159">
          <mxGeometry relative="1" as="geometry" />
        </mxCell>
        <mxCell id="_4646R3vuw2SqdPAQTDo-181" style="edgeStyle=orthogonalEdgeStyle;rounded=0;orthogonalLoop=1;jettySize=auto;html=1;exitX=0.5;exitY=1;exitDx=0;exitDy=0;entryX=0;entryY=0.5;entryDx=0;entryDy=0;" edge="1" parent="1" source="_4646R3vuw2SqdPAQTDo-163" target="_4646R3vuw2SqdPAQTDo-173">
          <mxGeometry relative="1" as="geometry">
            <Array as="points">
              <mxPoint x="960" y="935" />
            </Array>
          </mxGeometry>
        </mxCell>
        <mxCell id="_4646R3vuw2SqdPAQTDo-163" value="" style="ellipse;whiteSpace=wrap;html=1;aspect=fixed;fillColor=#ffe6cc;strokeColor=#d79b00;" vertex="1" parent="1">
          <mxGeometry x="945" y="890" width="30" height="30" as="geometry" />
        </mxCell>
        <mxCell id="_4646R3vuw2SqdPAQTDo-164" style="edgeStyle=orthogonalEdgeStyle;rounded=0;orthogonalLoop=1;jettySize=auto;html=1;exitX=0.5;exitY=1;exitDx=0;exitDy=0;entryX=1;entryY=0.5;entryDx=0;entryDy=0;" edge="1" parent="1" source="_4646R3vuw2SqdPAQTDo-130" target="_4646R3vuw2SqdPAQTDo-163">
          <mxGeometry relative="1" as="geometry" />
        </mxCell>
        <mxCell id="_4646R3vuw2SqdPAQTDo-183" style="edgeStyle=orthogonalEdgeStyle;rounded=0;orthogonalLoop=1;jettySize=auto;html=1;exitX=0.5;exitY=1;exitDx=0;exitDy=0;entryX=0.5;entryY=0;entryDx=0;entryDy=0;" edge="1" parent="1" source="_4646R3vuw2SqdPAQTDo-173" target="_4646R3vuw2SqdPAQTDo-182">
          <mxGeometry relative="1" as="geometry" />
        </mxCell>
        <mxCell id="_4646R3vuw2SqdPAQTDo-173" value="" style="ellipse;whiteSpace=wrap;html=1;aspect=fixed;fillColor=#ffe6cc;strokeColor=#d79b00;" vertex="1" parent="1">
          <mxGeometry x="1125" y="920" width="30" height="30" as="geometry" />
        </mxCell>
        <mxCell id="_4646R3vuw2SqdPAQTDo-178" style="edgeStyle=orthogonalEdgeStyle;rounded=0;orthogonalLoop=1;jettySize=auto;html=1;exitX=0.5;exitY=1;exitDx=0;exitDy=0;entryX=0;entryY=0.5;entryDx=0;entryDy=0;" edge="1" parent="1" source="_4646R3vuw2SqdPAQTDo-174" target="_4646R3vuw2SqdPAQTDo-177">
          <mxGeometry relative="1" as="geometry">
            <Array as="points">
              <mxPoint x="1470" y="732" />
            </Array>
          </mxGeometry>
        </mxCell>
        <mxCell id="_4646R3vuw2SqdPAQTDo-174" value="" style="ellipse;whiteSpace=wrap;html=1;aspect=fixed;fillColor=#ffe6cc;strokeColor=#d79b00;" vertex="1" parent="1">
          <mxGeometry x="1455" y="687" width="30" height="30" as="geometry" />
        </mxCell>
        <mxCell id="_4646R3vuw2SqdPAQTDo-175" style="edgeStyle=orthogonalEdgeStyle;rounded=0;orthogonalLoop=1;jettySize=auto;html=1;exitX=0.5;exitY=1;exitDx=0;exitDy=0;entryX=0;entryY=0.5;entryDx=0;entryDy=0;" edge="1" parent="1" source="_4646R3vuw2SqdPAQTDo-36" target="_4646R3vuw2SqdPAQTDo-174">
          <mxGeometry relative="1" as="geometry" />
        </mxCell>
        <mxCell id="_4646R3vuw2SqdPAQTDo-180" style="edgeStyle=orthogonalEdgeStyle;rounded=0;orthogonalLoop=1;jettySize=auto;html=1;exitX=0.5;exitY=1;exitDx=0;exitDy=0;entryX=1;entryY=0.5;entryDx=0;entryDy=0;" edge="1" parent="1" source="_4646R3vuw2SqdPAQTDo-177" target="_4646R3vuw2SqdPAQTDo-173">
          <mxGeometry relative="1" as="geometry" />
        </mxCell>
        <mxCell id="_4646R3vuw2SqdPAQTDo-177" value="" style="ellipse;whiteSpace=wrap;html=1;aspect=fixed;fillColor=#ffe6cc;strokeColor=#d79b00;" vertex="1" parent="1">
          <mxGeometry x="1575" y="717" width="30" height="30" as="geometry" />
        </mxCell>
        <mxCell id="_4646R3vuw2SqdPAQTDo-182" value="" style="ellipse;whiteSpace=wrap;html=1;aspect=fixed;fillColor=#f8cecc;strokeColor=#b85450;" vertex="1" parent="1">
          <mxGeometry x="1115" y="980" width="50" height="50" as="geometry" />
        </mxCell>
        <mxCell id="_4646R3vuw2SqdPAQTDo-188" style="edgeStyle=orthogonalEdgeStyle;rounded=0;orthogonalLoop=1;jettySize=auto;html=1;exitX=1;exitY=0.5;exitDx=0;exitDy=0;entryX=0.5;entryY=0;entryDx=0;entryDy=0;" edge="1" parent="1" source="_4646R3vuw2SqdPAQTDo-184" target="_4646R3vuw2SqdPAQTDo-187">
          <mxGeometry relative="1" as="geometry" />
        </mxCell>
        <mxCell id="_4646R3vuw2SqdPAQTDo-189" value="V" style="edgeLabel;html=1;align=center;verticalAlign=middle;resizable=0;points=[];" vertex="1" connectable="0" parent="_4646R3vuw2SqdPAQTDo-188">
          <mxGeometry x="-0.275" relative="1" as="geometry">
            <mxPoint as="offset" />
          </mxGeometry>
        </mxCell>
        <mxCell id="_4646R3vuw2SqdPAQTDo-193" style="edgeStyle=orthogonalEdgeStyle;rounded=0;orthogonalLoop=1;jettySize=auto;html=1;exitX=0;exitY=0.5;exitDx=0;exitDy=0;entryX=0;entryY=0.5;entryDx=0;entryDy=0;" edge="1" parent="1" source="_4646R3vuw2SqdPAQTDo-184" target="_4646R3vuw2SqdPAQTDo-190">
          <mxGeometry relative="1" as="geometry" />
        </mxCell>
        <mxCell id="_4646R3vuw2SqdPAQTDo-194" value="F" style="edgeLabel;html=1;align=center;verticalAlign=middle;resizable=0;points=[];" vertex="1" connectable="0" parent="_4646R3vuw2SqdPAQTDo-193">
          <mxGeometry x="-0.5259" y="-1" relative="1" as="geometry">
            <mxPoint as="offset" />
          </mxGeometry>
        </mxCell>
        <mxCell id="_4646R3vuw2SqdPAQTDo-184" value="Dia &amp;lt; 1 || Dia &amp;gt; 31 || Mes &amp;lt; 1 || Mes &amp;gt; 12" style="rhombus;whiteSpace=wrap;html=1;fillColor=#ffe6cc;strokeColor=#d79b00;" vertex="1" parent="1">
          <mxGeometry x="39" y="200" width="240" height="100" as="geometry" />
        </mxCell>
        <mxCell id="_4646R3vuw2SqdPAQTDo-191" style="edgeStyle=orthogonalEdgeStyle;rounded=0;orthogonalLoop=1;jettySize=auto;html=1;exitX=0.5;exitY=0;exitDx=0;exitDy=0;entryX=1;entryY=0.5;entryDx=0;entryDy=0;" edge="1" parent="1" source="_4646R3vuw2SqdPAQTDo-187" target="_4646R3vuw2SqdPAQTDo-190">
          <mxGeometry relative="1" as="geometry">
            <Array as="points">
              <mxPoint x="339" y="375" />
            </Array>
          </mxGeometry>
        </mxCell>
        <mxCell id="_4646R3vuw2SqdPAQTDo-187" value="&quot; Números inválidos, digite novamente&quot;" style="shape=document;whiteSpace=wrap;html=1;boundedLbl=1;fillColor=#dae8fc;strokeColor=#6c8ebf;" vertex="1" parent="1">
          <mxGeometry x="279" y="270" width="120" height="80" as="geometry" />
        </mxCell>
        <mxCell id="_4646R3vuw2SqdPAQTDo-192" style="edgeStyle=orthogonalEdgeStyle;rounded=0;orthogonalLoop=1;jettySize=auto;html=1;exitX=0.5;exitY=1;exitDx=0;exitDy=0;" edge="1" parent="1" source="_4646R3vuw2SqdPAQTDo-190">
          <mxGeometry relative="1" as="geometry">
            <mxPoint x="159" y="410" as="targetPoint" />
          </mxGeometry>
        </mxCell>
        <mxCell id="_4646R3vuw2SqdPAQTDo-190" value="" style="ellipse;whiteSpace=wrap;html=1;aspect=fixed;fillColor=#ffe6cc;strokeColor=#d79b00;" vertex="1" parent="1">
          <mxGeometry x="144" y="360" width="30" height="30" as="geometry" />
        </mxCell>
      </root>
    </mxGraphModel>
  </diagram>
</mxfile>
